HIERARCHY
ROOT Hips
{
    OFFSET   0.000000   0.000000   0.000000
    CHANNELS 6 Xposition Yposition Zposition Zrotation Xrotation Yrotation
    JOINT Chest
    {
        OFFSET   0.000000   8.007230   0.000000
        CHANNELS 3 Zrotation Xrotation Yrotation
        JOINT Chest2
        {
            OFFSET   0.000000  22.077100   0.000000
            CHANNELS 3 Zrotation Xrotation Yrotation
            JOINT Neck
            {
                OFFSET   0.000000  23.254800   0.000000
                CHANNELS 3 Zrotation Xrotation Yrotation
                JOINT Head
                {
                    OFFSET   0.000010  14.370000   1.956600
                    CHANNELS 3 Zrotation Xrotation Yrotation
                    End Site
                    {
                        OFFSET   0.000000  19.566000   0.000000
                    }
                }
            }
            JOINT LeftCollar
            {
                OFFSET   3.911900  19.017000  -0.467062
                CHANNELS 3 Zrotation Xrotation Yrotation
                JOINT LeftShoulder
                {
                    OFFSET  10.383700   0.000000   0.000000
                    CHANNELS 3 Zrotation Xrotation Yrotation
                    JOINT LeftElbow
                    {
                        OFFSET  26.662100   0.001193   0.000835
                        CHANNELS 3 Zrotation Xrotation Yrotation
                        JOINT LeftWrist
                        {
                            OFFSET  28.869000  -0.000058  -0.000075
                            CHANNELS 3 Zrotation Xrotation Yrotation
                            JOINT LeftFinger0
                            {
                                OFFSET   2.044660  -2.323460   3.252850
                                CHANNELS 3 Zrotation Xrotation Yrotation
                                JOINT LeftFinger01
                                {
                                    OFFSET   3.088130   0.000000   0.000000
                                    CHANNELS 3 Zrotation Xrotation Yrotation
                                    JOINT LeftFinger02
                                    {
                                        OFFSET   2.639450   0.000000   0.000000
                                        CHANNELS 3 Zrotation Xrotation Yrotation
                                        End Site
                                        {
                                            OFFSET   2.582190   0.000000   0.000000
                                        }
                                    }
                                }
                            }
                            JOINT LeftFinger1
                            {
                                OFFSET   8.364480   0.000000   3.252850
                                CHANNELS 3 Zrotation Xrotation Yrotation
                                JOINT LeftFinger11
                                {
                                    OFFSET   4.646920   0.000000   0.000000
                                    CHANNELS 3 Zrotation Xrotation Yrotation
                                    JOINT LeftFinger12
                                    {
                                        OFFSET   2.323460   0.000000   0.000000
                                        CHANNELS 3 Zrotation Xrotation Yrotation
                                        End Site
                                        {
                                            OFFSET   2.273050   0.000000   0.000000
                                        }
                                    }
                                }
                            }
                            JOINT LeftFinger2
                            {
                                OFFSET   8.364490   0.000016   1.078090
                                CHANNELS 3 Zrotation Xrotation Yrotation
                                JOINT LeftFinger21
                                {
                                    OFFSET   5.111620   0.000000   0.000000
                                    CHANNELS 3 Zrotation Xrotation Yrotation
                                    JOINT LeftFinger22
                                    {
                                        OFFSET   2.788150   0.000012   0.000000
                                        CHANNELS 3 Zrotation Xrotation Yrotation
                                        End Site
                                        {
                                            OFFSET   2.727660   0.000000   0.000000
                                        }
                                    }
                                }
                            }
                            JOINT LeftFinger3
                            {
                                OFFSET   7.899780   0.000014  -1.078090
                                CHANNELS 3 Zrotation Xrotation Yrotation
                                JOINT LeftFinger31
                                {
                                    OFFSET   4.646930   0.000000   0.000000
                                    CHANNELS 3 Zrotation Xrotation Yrotation
                                    JOINT LeftFinger32
                                    {
                                        OFFSET   2.323470   0.000000   0.000000
                                        CHANNELS 3 Zrotation Xrotation Yrotation
                                        End Site
                                        {
                                            OFFSET   2.273050   0.000000   0.000000
                                        }
                                    }
                                }
                            }
                            JOINT LeftFinger4
                            {
                                OFFSET   7.435090   0.000000  -3.252850
                                CHANNELS 3 Zrotation Xrotation Yrotation
                                JOINT LeftFinger41
                                {
                                    OFFSET   3.717550   0.000000   0.000000
                                    CHANNELS 3 Zrotation Xrotation Yrotation
                                    JOINT LeftFinger42
                                    {
                                        OFFSET   1.858770   0.000000   0.000000
                                        CHANNELS 3 Zrotation Xrotation Yrotation
                                        End Site
                                        {
                                            OFFSET   1.818440   0.000000   0.000000
                                        }
                                    }
                                }
                            }
                        }
                    }
                }
            }
            JOINT RightCollar
            {
                OFFSET  -3.911900  19.017000  -0.467063
                CHANNELS 3 Zrotation Xrotation Yrotation
                JOINT RightShoulder
                {
                    OFFSET -10.383700   0.000023   0.000000
                    CHANNELS 3 Zrotation Xrotation Yrotation
                    JOINT RightElbow
                    {
                        OFFSET -26.662100   0.001246   0.001011
                        CHANNELS 3 Zrotation Xrotation Yrotation
                        JOINT RightWrist
                        {
                            OFFSET -28.869000  -0.000026  -0.000078
                            CHANNELS 3 Zrotation Xrotation Yrotation
                            JOINT RightFinger0
                            {
                                OFFSET  -2.044660  -2.323490   3.252850
                                CHANNELS 3 Zrotation Xrotation Yrotation
                                JOINT RightFinger01
                                {
                                    OFFSET  -3.088130   0.000000   0.000000
                                    CHANNELS 3 Zrotation Xrotation Yrotation
                                    JOINT RightFinger02
                                    {
                                        OFFSET  -2.639460   0.000000   0.000000
                                        CHANNELS 3 Zrotation Xrotation Yrotation
                                        End Site
                                        {
                                            OFFSET  -2.582190   0.000000   0.000000
                                        }
                                    }
                                }
                            }
                            JOINT RightFinger1
                            {
                                OFFSET  -8.364480   0.000000   3.252850
                                CHANNELS 3 Zrotation Xrotation Yrotation
                                JOINT RightFinger11
                                {
                                    OFFSET  -4.646920   0.000000   0.000000
                                    CHANNELS 3 Zrotation Xrotation Yrotation
                                    JOINT RightFinger12
                                    {
                                        OFFSET  -2.323470   0.000000   0.000000
                                        CHANNELS 3 Zrotation Xrotation Yrotation
                                        End Site
                                        {
                                            OFFSET  -2.273050   0.000000   0.000000
                                        }
                                    }
                                }
                            }
                            JOINT RightFinger2
                            {
                                OFFSET  -8.364480   0.000000   1.078090
                                CHANNELS 3 Zrotation Xrotation Yrotation
                                JOINT RightFinger21
                                {
                                    OFFSET  -5.111620   0.000000   0.000000
                                    CHANNELS 3 Zrotation Xrotation Yrotation
                                    JOINT RightFinger22
                                    {
                                        OFFSET  -2.788160   0.000000   0.000000
                                        CHANNELS 3 Zrotation Xrotation Yrotation
                                        End Site
                                        {
                                            OFFSET  -2.727660   0.000000   0.000000
                                        }
                                    }
                                }
                            }
                            JOINT RightFinger3
                            {
                                OFFSET  -7.899780   0.000000  -1.078090
                                CHANNELS 3 Zrotation Xrotation Yrotation
                                JOINT RightFinger31
                                {
                                    OFFSET  -4.646930   0.000000   0.000000
                                    CHANNELS 3 Zrotation Xrotation Yrotation
                                    JOINT RightFinger32
                                    {
                                        OFFSET  -2.323470   0.000000   0.000000
                                        CHANNELS 3 Zrotation Xrotation Yrotation
                                        End Site
                                        {
                                            OFFSET  -2.273050   0.000000   0.000000
                                        }
                                    }
                                }
                            }
                            JOINT RightFinger4
                            {
                                OFFSET  -7.435090   0.000000  -3.252850
                                CHANNELS 3 Zrotation Xrotation Yrotation
                                JOINT RightFinger41
                                {
                                    OFFSET  -3.717550   0.000000   0.000000
                                    CHANNELS 3 Zrotation Xrotation Yrotation
                                    JOINT RightFinger42
                                    {
                                        OFFSET  -1.858760   0.000000   0.000000
                                        CHANNELS 3 Zrotation Xrotation Yrotation
                                        End Site
                                        {
                                            OFFSET  -1.818440   0.000000   0.000000
                                        }
                                    }
                                }
                            }
                        }
                    }
                }
            }
        }
    }
    JOINT LeftHip
    {
        OFFSET   9.783010   0.000000   0.000000
        CHANNELS 3 Zrotation Xrotation Yrotation
        JOINT LeftKnee
        {
            OFFSET   0.000073 -41.789100   0.001749
            CHANNELS 3 Zrotation Xrotation Yrotation
            JOINT LeftAnkle
            {
                OFFSET   0.000111 -41.133200  -0.000179
                CHANNELS 3 Zrotation Xrotation Yrotation
                JOINT LeftToe
                {
                    OFFSET   0.000000  -6.358960  14.674500
                    CHANNELS 3 Zrotation Xrotation Yrotation
                    End Site
                    {
                        OFFSET   0.000000   0.000000   3.913200
                    }
                }
            }
        }
    }
    JOINT RightHip
    {
        OFFSET  -9.783010   0.000000   0.000000
        CHANNELS 3 Zrotation Xrotation Yrotation
        JOINT RightKnee
        {
            OFFSET   0.000424 -41.789200   0.005205
            CHANNELS 3 Zrotation Xrotation Yrotation
            JOINT RightAnkle
            {
                OFFSET   0.000000 -41.133200  -0.000155
                CHANNELS 3 Zrotation Xrotation Yrotation
                JOINT RightToe
                {
                    OFFSET   0.000000  -6.358960  14.674500
                    CHANNELS 3 Zrotation Xrotation Yrotation
                    End Site
                    {
                        OFFSET   0.000000   0.000000   3.913200
                    }
                }
            }
        }
    }
}
MOTION
Frames: 6
Frame Time:   0.016667
 -1.867960  89.512900  -2.520760  -7.177910 -14.230700 -13.251700   0.846552   9.170020  -1.065290   1.905620  18.321300  -2.315190   2.103250   1.385280  -0.046230   3.460720   2.798080   7.524820  -4.044100  -0.715646  -1.189420 -68.366700  21.845600  -5.800930  -3.214170  -6.555600 -20.733200  20.581700 -13.362600   8.422640  41.818000  38.616100 -69.828400 -32.632200   0.002468   0.002274 -11.316100  -0.002595  -0.001493 -34.069500   6.131600  -8.975400 -28.269100  -0.003031   0.002931 -19.788400  -0.003551   0.003759 -29.456900  -1.502490   2.657920 -44.237700  -0.004940   0.002668 -29.462300  -0.001622  -0.002341 -28.757800  -1.469930   2.676050 -42.017100  -0.000709   0.001882 -27.983400  -0.002471   0.001650 -35.244200  -1.762970   2.492870 -52.923800  -0.001643   0.003834 -35.247200  -0.005472   0.001021   8.996040   2.253740   5.987350  51.661500 -21.262800  15.332200 -48.073500 -24.500600  37.034600  -0.564463  37.327800 -12.392700 -48.157600  28.104400  57.075700   6.720590   0.000792  -0.000000  -1.639700   0.000172  -0.000448   6.910190   0.260302   2.150410   5.657780  -0.006158  -0.000558   3.960450  -0.003121  -0.003450   8.839100   0.306174   1.970110   8.844320  -0.007613  -0.000603   5.890330  -0.003013  -0.002785   3.515400   0.122073   1.990020   3.517490  -0.001191  -0.003827   2.342650  -0.007021  -0.002099  14.733000  -1.268150  -4.809250  22.179400   0.004724   0.001469  14.771500   0.001982   0.000991   4.797970  17.985000   4.698610   1.406220   0.087777  12.326500  -3.946410  -3.085260   4.021910   0.000000   0.000000  -0.000000   5.230950  12.011700  -5.138480  -2.771770   6.421250  -5.437720   1.672340  -4.334640   6.996290  -0.000000   0.000000   0.000000
 -1.869820  89.518100  -2.531920  -7.234310 -14.207300 -13.319600   0.851430   9.142720  -1.029160   1.908750  18.267200  -2.241550   2.098280   1.378930  -0.046641   3.452660   2.785360   7.427770  -4.063900  -0.701686  -1.167020 -68.387800  21.868000  -5.863330  -3.176890  -6.549700 -20.825600  20.513900 -13.386200   8.381130  41.827400  38.655700 -69.879700 -32.669500   0.002460   0.002646 -11.334700  -0.002594  -0.001497 -34.069200   6.102350  -8.929950 -28.264300  -0.003030   0.002933 -19.785000  -0.003552   0.003759 -29.448200  -1.533770   2.713750 -44.227200  -0.005250   0.002670 -29.455300  -0.001616  -0.002334 -28.755500  -1.500730   2.732170 -42.012000  -0.001248   0.001885 -27.979900  -0.002469   0.001652 -35.258300  -1.800880   2.544440 -52.945700  -0.001049   0.003836 -35.261900  -0.005199   0.001017   9.000020   2.299970   6.014820  51.690200 -20.930600  15.418600 -48.045400 -24.637400  37.016500  -0.486179  37.393900 -12.442100 -48.228200  28.178400  57.139700   6.758190   0.000810  -0.000038  -1.620900   0.000192  -0.000316   6.973430   0.268811   2.200470   5.709710  -0.006598  -0.000720   3.996790  -0.003646  -0.003433   8.892260   0.315445   2.017630   8.897730  -0.008079  -0.000740   5.925890  -0.003261  -0.002770   3.542670   0.125836   2.038250   3.544830  -0.001160  -0.004021   2.360860  -0.007433  -0.002155  14.782700  -1.276780  -4.827930  22.254900   0.004720   0.001682  14.821800   0.002167   0.001138   4.849660  17.985300   4.719850   1.407830   0.087536  12.320600  -3.910530  -3.137180   4.053090  -0.000000   0.000000  -0.000000   5.242830  12.037000  -5.014200  -2.693030   6.342820  -5.554760   1.672100  -4.274050   7.094920   0.000000   0.000000   0.000000
 -1.870080  89.523600  -2.543650  -7.279350 -14.181100 -13.345500   0.854757   9.113250  -0.994490   1.908930  18.208900  -2.170600   2.097350   1.365890  -0.047039   3.450630   2.758790   7.334390  -4.087460  -0.692306  -1.149570 -68.411100  21.924200  -5.923140  -3.143290  -6.536290 -20.893100  20.404800 -13.391000   8.331560  41.830000  38.684900 -69.885000 -32.691400   0.002454   0.003023 -11.345700  -0.002592  -0.001500 -34.052000   6.065490  -8.886190 -28.246600  -0.003029   0.002937 -19.772600  -0.003553   0.003760 -29.426200  -1.562090   2.766790 -44.195800  -0.005681   0.002671 -29.434400  -0.001615  -0.002327 -28.753000  -1.529600   2.784890 -41.980700  -0.002218   0.001887 -27.959100  -0.002468   0.001654 -35.257700  -1.835200   2.593790 -52.948800  -0.000890   0.003838 -35.264000  -0.005105   0.001013   9.004180   2.337630   6.033910  51.731100 -20.628300  15.488900 -48.020300 -24.710400  36.998500  -0.404989  37.415200 -12.510600 -48.269600  28.257600  57.225400   6.788540   0.000815  -0.000076  -1.605730   0.000201  -0.000205   7.036830   0.277926   2.252770   5.761780  -0.007044  -0.000889   4.033240  -0.004195  -0.003412   8.946100   0.327401   2.080600   8.951920  -0.008553  -0.000884   5.961970  -0.003525  -0.002753   3.581480   0.131213   2.102080   3.583780  -0.001152  -0.004227   2.386800  -0.007853  -0.002217  14.816500  -1.285410  -4.846610  22.306300   0.004690   0.001904  14.856000   0.002332   0.001296   4.914110  17.985200   4.761580   1.408480   0.085850  12.283300  -3.882840  -3.170300   4.058140  -0.000000   0.000000   0.000000   5.252320  12.050800  -4.919030  -2.612570   6.274620  -5.684280   1.672120  -4.221640   7.186080  -0.000000   0.000000   0.000000
 -1.870000  89.529500  -2.559210  -7.311210 -14.138700 -13.321700   0.859780   9.076940  -0.966173   1.913350  18.136700  -2.112630   2.098300   1.350850  -0.047467   3.451830   2.728230   7.258000  -4.122480  -0.679508  -1.137780 -68.443000  22.010600  -5.977480  -3.098270  -6.514830 -20.937800  20.311900 -13.348100   8.304650  41.841100  38.687800 -69.833400 -32.687400   0.002458   0.003437 -11.343700  -0.002590  -0.001493 -34.005200   6.042090  -8.867940 -28.206100  -0.003031   0.002939 -19.744200  -0.003550   0.003762 -29.383400  -1.573310   2.791470 -44.132600  -0.005852   0.002671 -29.392300  -0.001618  -0.002332 -28.752100  -1.542500   2.808610 -41.883200  -0.003403   0.001887 -27.894200  -0.002468   0.001657 -35.222000  -1.849190   2.616970 -52.896300  -0.000712   0.003840 -35.229000  -0.004878   0.001001   9.011830   2.351440   6.048320  51.815300 -20.393900  15.540400 -47.979200 -24.640000  37.042300  -0.366679  37.407500 -12.563400 -48.167600  28.221300  57.316200   6.834310   0.000791  -0.000075  -1.582840   0.000201  -0.000091   7.109540   0.297025   2.394530   5.821960  -0.007496  -0.001066   4.075360  -0.004765  -0.003388   9.019050   0.351159   2.220380   9.025840  -0.009037  -0.001037   6.011210  -0.003805  -0.002734   3.665050   0.143019   2.243620   3.667820  -0.001165  -0.004445   2.442770  -0.008280  -0.002287  14.848400  -1.277590  -4.799210  22.353500   0.004625   0.002135  14.887400   0.002477   0.001463   4.990270  17.955800   4.821530   1.396170   0.070762  12.185400  -3.855320  -3.190000   4.056100   0.000000   0.000000   0.000000   5.272200  12.041500  -4.891690  -2.546990   6.208610  -5.778200   1.665740  -4.173370   7.254250   0.000000   0.000000   0.000000
 -1.869430  89.535500  -2.575740  -7.326630 -14.094300 -13.257700   0.861024   9.039640  -0.942461   1.911070  18.062500  -2.063720   2.100060   1.331810  -0.047710   3.455030   2.689650   7.190340  -4.161400  -0.668680  -1.133040 -68.481700  22.107000  -6.018840  -3.054240  -6.476750 -20.974500  20.245300 -13.285400   8.287080  41.855700  38.672400 -69.765100 -32.683400   0.002463   0.003684 -11.341800  -0.002588  -0.001487 -33.958200   6.019960  -8.851550 -28.165600  -0.003035   0.002940 -19.715900  -0.003546   0.003764 -29.341400  -1.584130   2.815380 -44.070500  -0.005904   0.002671 -29.351000  -0.001620  -0.002337 -28.751200  -1.554990   2.831580 -41.808300  -0.004157   0.001886 -27.844300  -0.002467   0.001660 -35.186300  -1.862670   2.639470 -52.843900  -0.000596   0.003841 -35.194100  -0.004741   0.000989   9.019230   2.353400   6.054350  51.921100 -20.175400  15.552200 -47.881400 -24.553100  37.131400  -0.330727  37.387300 -12.615900 -48.095000  28.179500  57.385400   6.906970   0.000728  -0.000071  -1.546510   0.000196   0.000000   7.221030   0.315689   2.493410   5.913740  -0.007953  -0.001250   4.139610  -0.005353  -0.003361   9.129690   0.372167   2.316830   9.137230  -0.009531  -0.001198   6.085400  -0.004103  -0.002713   3.806640   0.155424   2.341260   3.809820  -0.001254  -0.004677   2.537340  -0.008716  -0.002367  14.920400  -1.269760  -4.751820  22.459800   0.004524   0.002378  14.958200   0.002600   0.001639   5.065520  17.903200   4.860330   1.378460   0.046577  12.074900  -3.832310  -3.195910   4.043590   0.000000   0.000000   0.000000   5.293030  12.026600  -4.887510  -2.493290   6.142810  -5.848350   1.649270  -4.129450   7.286010  -0.000000   0.000000   0.000000
 -1.868660  89.541200  -2.591530  -7.321160 -14.058700 -13.151700   0.857537   9.006450  -0.925065   1.899940  17.996400  -2.027060   2.101510   1.308220  -0.047551   3.457200   2.642150   7.132480  -4.199610  -0.662947  -1.137010 -68.526100  22.192600  -6.037000  -3.020920  -6.411280 -21.019200  20.233300 -13.259500   8.279260  41.842400  38.651000 -69.724200 -32.689800   0.002467   0.003695 -11.344900  -0.002584  -0.001487 -33.944200   5.993450  -8.817980 -28.151000  -0.003039   0.002939 -19.705700  -0.003545   0.003764 -29.325700  -1.609040   2.861300 -44.048800  -0.005907   0.002673 -29.336500  -0.001620  -0.002337 -28.748900  -1.580130   2.877370 -41.805700  -0.004156   0.001886 -27.842600  -0.002467   0.001657 -35.188300  -1.892820   2.682120 -52.849400  -0.000430   0.003840 -35.197700  -0.004741   0.000981   9.026340   2.319010   6.053930  52.048500 -19.964300  15.524100 -47.762900 -24.519500  37.233500  -0.263667  37.222100 -12.638900 -48.071500  28.109300  57.261800   7.035520   0.000633  -0.000042  -1.482250   0.000180   0.000042   7.404010   0.321418   2.487470   6.063480  -0.008415  -0.001442   4.244430  -0.005955  -0.003334   9.300710   0.375841   2.299040   9.308200  -0.010035  -0.001367   6.199270  -0.004376  -0.002692   4.026710   0.161108   2.323630   4.029900  -0.002494  -0.004923   2.683920  -0.009160  -0.002457  15.057700  -1.317360  -4.852400  22.668200   0.004387   0.002624  15.097000   0.002700   0.001821   5.118870  17.856200   4.845860   1.370930   0.018804  11.997100  -3.813120  -3.190920   4.015050   0.000000   0.000000   0.000000   5.312570  12.016100  -4.887280  -2.456780   6.070840  -5.879450   1.616210  -4.087260   7.228410  -0.000000   0.000000  -0.000000
